<?xml version="1.0" encoding="iso-8859-1"?>
<!-- Generator: Adobe Illustrator 19.0.0, SVG Export Plug-In . SVG Version: 6.00 Build 0)  -->
<svg version="1.1" id="Layer_1" xmlns="http://www.w3.org/2000/svg" xmlns:xlink="http://www.w3.org/1999/xlink" x="0px" y="0px"
	 viewBox="0 0 512 512" style="enable-background:new 0 0 512 512;" xml:space="preserve">
<g>
	<rect x="75.034" y="52.966" style="fill:#707487;" width="35.31" height="17.655"/>
	<rect x="75.034" y="247.172" style="fill:#707487;" width="35.31" height="17.655"/>
</g>
<path style="fill:#FF6464;" d="M445.793,0c-53.495,0-104.267,8.207-158.022,16.897C231.794,25.949,173.906,35.31,110.345,35.31
	c-4.875,0-8.828,3.948-8.828,8.828v229.517c0,4.879,3.953,8.828,8.828,8.828c64.979,0,123.577-9.474,180.246-18.638
	c53.03-8.577,103.125-16.672,155.202-16.672c4.875,0,8.828-3.948,8.828-8.828V8.828C454.621,3.948,450.668,0,445.793,0z"/>
<path style="fill:#5B5D6E;" d="M75.034,26.483h-8.828c-4.875,0-8.828,3.953-8.828,8.828v467.862c0,4.875,3.953,8.828,8.828,8.828
	h8.828c4.875,0,8.828-3.953,8.828-8.828V35.31C83.862,30.435,79.91,26.483,75.034,26.483z"/>
<path style="fill:#D2555A;" d="M110.345,282.483c2.978,0,5.876-0.117,8.828-0.156V35.153c-2.951,0.04-5.853,0.158-8.828,0.158
	c-4.875,0-8.828,3.948-8.828,8.828v229.517C101.517,278.535,105.47,282.483,110.345,282.483z"/>
<path style="fill:#464655;" d="M83.862,44.138H57.379V35.31c0-4.875,3.953-8.828,8.828-8.828h8.828c4.875,0,8.828,3.953,8.828,8.828
	V44.138z"/>
<g>
</g>
<g>
</g>
<g>
</g>
<g>
</g>
<g>
</g>
<g>
</g>
<g>
</g>
<g>
</g>
<g>
</g>
<g>
</g>
<g>
</g>
<g>
</g>
<g>
</g>
<g>
</g>
<g>
</g>
</svg>
