<?xml version="1.0" encoding="iso-8859-1"?>
<!-- Generator: Adobe Illustrator 19.0.0, SVG Export Plug-In . SVG Version: 6.00 Build 0)  -->
<svg version="1.1" id="Layer_1" xmlns="http://www.w3.org/2000/svg" xmlns:xlink="http://www.w3.org/1999/xlink" x="0px" y="0px"
	 viewBox="0 0 511.999 511.999" style="enable-background:new 0 0 511.999 511.999;" xml:space="preserve">
<path style="fill:#FFEA8A;" d="M419.591,366.47c-116.335-3.101-210.359-98.144-212.239-214.505
	c-0.262-16.184,1.247-31.97,4.337-47.183c2.249-11.067-8.393-20.432-19.038-16.661c-85.527,30.289-146.55,112.393-145.306,208.586
	c1.533,118.632,98.926,214.978,217.568,215.292c87.78,0.233,163.52-51.381,198.351-125.939c4.79-10.253-3.286-21.937-14.538-20.74
	C439.185,366.333,429.462,366.733,419.591,366.47z"/>
<path style="fill:#88888F;" d="M381.866,0v161.267c-4.62-0.828-9.486-1.27-14.545-1.27c-33.169,0-58.181,18.759-58.181,43.635
	s25.012,43.635,58.181,43.635s58.181-18.759,58.181-43.635V43.635h36.363V0H381.866z"/>
<path style="fill:#FFDB2D;" d="M448.727,365.319c-9.54,1.014-19.265,1.412-29.135,1.151c-60.773-1.62-115.448-28.341-154.087-70.074
	V511.99c87.528-0.001,163.008-51.539,197.76-125.931C468.054,375.808,459.979,364.124,448.727,365.319z"/>
<path style="fill:#56545A;" d="M381.866,0v43.635v202.363c25.668-4.601,43.635-21.284,43.635-42.366V43.635h36.363V0H381.866z"/>
<g>
</g>
<g>
</g>
<g>
</g>
<g>
</g>
<g>
</g>
<g>
</g>
<g>
</g>
<g>
</g>
<g>
</g>
<g>
</g>
<g>
</g>
<g>
</g>
<g>
</g>
<g>
</g>
<g>
</g>
</svg>
