<?xml version="1.0" encoding="iso-8859-1"?>
<!-- Generator: Adobe Illustrator 19.0.0, SVG Export Plug-In . SVG Version: 6.00 Build 0)  -->
<svg version="1.1" id="Layer_1" xmlns="http://www.w3.org/2000/svg" xmlns:xlink="http://www.w3.org/1999/xlink" x="0px" y="0px"
	 viewBox="0 0 511.993 511.993" style="enable-background:new 0 0 511.993 511.993;" xml:space="preserve">
<g>
	<path style="fill:#FC6E51;" d="M501.337,37.335c-198.81,0-365.87,135.967-413.213,319.995h22.047
		c4.734-17.358,10.608-34.405,17.671-51.108c10.156-24.016,22.734-47.172,37.375-68.843c14.5-21.468,31.156-41.656,49.499-59.999
		c18.344-18.343,38.546-35,59.999-49.515c21.688-14.625,44.844-27.203,68.843-37.359c49.968-21.125,103.046-31.843,157.779-31.843
		c5.89,0,10.655-4.781,10.655-10.672S507.226,37.335,501.337,37.335z"/>
	<path style="fill:#FC6E51;" d="M501.337,122.662c-198.81,0-365.87,135.966-413.213,319.995h22.047
		c4.734-17.344,10.608-34.406,17.671-51.109c10.156-23.999,22.734-47.17,37.375-68.842c14.5-21.453,31.156-41.656,49.499-60
		c18.344-18.343,38.546-34.999,59.999-49.499c21.688-14.641,44.844-27.218,68.843-37.375
		c49.968-21.125,103.046-31.843,157.779-31.843c5.89,0,10.655-4.766,10.655-10.656C511.992,127.443,507.226,122.662,501.337,122.662
		z"/>
	<path style="fill:#FC6E51;" d="M501.337,207.989c-110.093,0-210.435,41.687-286.105,110.139h6.297v23.266
		c16.5-15.734,34.343-30.125,53.187-42.859c21.688-14.641,44.844-27.203,68.843-37.359c49.968-21.14,103.046-31.843,157.779-31.843
		c5.89,0,10.655-4.781,10.655-10.671C511.992,212.77,507.226,207.989,501.337,207.989z"/>
</g>
<polygon style="fill:#FFCE54;" points="157.029,175.974 205.56,274.284 314.058,290.05 235.559,366.596 254.09,474.658 
	157.029,423.626 60,474.658 78.531,366.596 0,290.05 108.515,274.284 "/>
<g>
</g>
<g>
</g>
<g>
</g>
<g>
</g>
<g>
</g>
<g>
</g>
<g>
</g>
<g>
</g>
<g>
</g>
<g>
</g>
<g>
</g>
<g>
</g>
<g>
</g>
<g>
</g>
<g>
</g>
</svg>
