<?xml version="1.0" encoding="UTF-8"?>
<svg xmlns="http://www.w3.org/2000/svg" xmlns:xlink="http://www.w3.org/1999/xlink" width="200px" height="200px" viewBox="0 0 200 200" version="1.1">
<g id="surface1">
<path style=" stroke:none;fill-rule:nonzero;fill:rgb(0%,0%,0%);fill-opacity:1;" d="M 96.679688 38.558594 C 96.121094 39.078125 95.441406 40.238281 95.199219 41.078125 C 94.160156 44.519531 97.238281 48 100.761719 47.441406 C 102.878906 47.121094 104.800781 44.921875 104.800781 42.800781 C 104.800781 39.441406 103 37.601562 99.761719 37.601562 C 98.160156 37.601562 97.480469 37.800781 96.679688 38.558594 Z M 96.679688 38.558594 "/>
<path style=" stroke:none;fill-rule:nonzero;fill:rgb(0%,0%,0%);fill-opacity:1;" d="M 102.320312 61.199219 C 102.199219 65.640625 102.199219 69.601562 102.28125 70 C 102.441406 70.519531 103 70.761719 104.761719 70.921875 C 107.160156 71.121094 111.640625 72.71875 111.878906 73.441406 C 112 73.839844 105.039062 76.761719 100.398438 78.238281 C 99.199219 78.640625 98.078125 79.078125 97.878906 79.199219 C 97.519531 79.519531 96.71875 85.960938 97.039062 86.441406 C 97.238281 86.800781 99.238281 86.160156 103.921875 84.160156 C 105.761719 83.359375 107.320312 82.800781 107.398438 82.878906 C 107.519531 82.960938 106.519531 84.878906 105.199219 87.160156 C 103.878906 89.398438 102.800781 91.320312 102.800781 91.441406 C 102.800781 91.519531 103.71875 91.601562 104.800781 91.601562 C 105.921875 91.601562 106.800781 91.761719 106.800781 91.960938 C 106.800781 92.320312 105.800781 93.238281 97.039062 100.960938 C 93.238281 104.320312 92 105.238281 92 104.640625 C 92 104.558594 92.71875 102.558594 93.640625 100.160156 C 95 96.558594 96.359375 92.519531 96.398438 92.078125 C 96.398438 92.039062 94.71875 92 92.679688 92 L 88.921875 92 L 88.320312 94.28125 C 87.960938 95.558594 87.480469 97.398438 87.28125 98.398438 C 87.039062 99.398438 86.679688 100.679688 86.441406 101.28125 L 86 102.398438 L 73.199219 102.398438 L 73.199219 151.960938 L 75.320312 154.078125 C 76.441406 155.238281 80.238281 159.160156 83.71875 162.761719 L 90 169.28125 L 90 114.039062 L 92.921875 111.640625 C 94.480469 110.320312 97.878906 107.519531 100.398438 105.441406 C 102.921875 103.359375 106.199219 100.519531 107.640625 99.121094 C 110.28125 96.601562 110.28125 96.601562 111.398438 92.398438 C 112.441406 88.480469 115.398438 78.078125 115.839844 76.839844 C 115.960938 76.398438 116.199219 76.441406 116.839844 77.039062 C 118.28125 78.359375 120.679688 82.320312 121.398438 84.601562 L 122.121094 86.800781 L 140.800781 86.800781 L 140.800781 85.878906 C 140.800781 84.398438 139.359375 79.878906 137.679688 76.078125 C 133.441406 66.558594 124.441406 58.359375 114.800781 55.28125 C 112.078125 54.398438 109.078125 53.839844 104.960938 53.398438 L 102.519531 53.121094 Z M 114.121094 62.960938 C 120.121094 65.441406 125.960938 70.558594 128.601562 75.679688 C 130.160156 78.679688 130.238281 79.761719 129 80.238281 C 128.121094 80.601562 127.359375 79.800781 125.878906 77.039062 C 123.398438 72.320312 118.078125 67.878906 112.28125 65.679688 C 109.960938 64.761719 109.359375 64.398438 109.28125 63.640625 C 109 61.800781 110.679688 61.558594 114.121094 62.960938 Z M 83.121094 109.679688 C 83.480469 110.039062 83.601562 113 83.601562 120.601562 C 83.601562 131.679688 83.441406 132.71875 81.878906 131.320312 C 81.480469 130.921875 81.160156 130.800781 81.199219 131 C 81.441406 132.078125 81.078125 132.441406 80.800781 131.398438 C 80.320312 129.519531 80.320312 110.878906 80.800781 109.960938 C 81.28125 109.121094 82.398438 108.960938 83.121094 109.679688 Z M 83.121094 109.679688 "/>
<path style=" stroke:none;fill-rule:nonzero;fill:rgb(0%,0%,0%);fill-opacity:1;" d="M 73.480469 53.839844 C 73.320312 54 73.199219 61.359375 73.199219 70.238281 L 73.199219 86.320312 L 74.238281 86.558594 C 75.398438 86.878906 84.121094 86.839844 87.679688 86.519531 L 90 86.28125 L 89.921875 70.039062 L 89.800781 53.800781 L 81.761719 53.679688 C 77.359375 53.640625 73.640625 53.71875 73.480469 53.839844 Z M 83.359375 61.441406 C 83.839844 62.679688 83.640625 78.601562 83.121094 79.121094 C 82.441406 79.800781 80.921875 79.71875 80.640625 78.960938 C 80.320312 78.121094 80.320312 61.398438 80.679688 61.078125 C 81.199219 60.558594 83.121094 60.800781 83.359375 61.441406 Z M 83.359375 61.441406 "/>
<path style=" stroke:none;fill-rule:nonzero;fill:rgb(0%,0%,0%);fill-opacity:1;" d="M 53.71875 87.480469 C 51.359375 87.960938 49.679688 91.359375 50.519531 93.921875 C 51.480469 96.878906 54.878906 97.960938 58.28125 96.441406 C 59.199219 96 60.078125 95.800781 60.238281 95.921875 C 60.398438 96.078125 60.398438 96 60.28125 95.761719 C 60.160156 95.519531 60.238281 94.71875 60.480469 93.921875 C 60.839844 92.761719 60.761719 92.238281 60.078125 90.679688 C 59.640625 89.679688 58.839844 88.558594 58.28125 88.199219 C 57.199219 87.519531 55.121094 87.160156 53.71875 87.480469 Z M 53.71875 87.480469 "/>
<path style=" stroke:none;fill-rule:nonzero;fill:rgb(0%,0%,0%);fill-opacity:1;" d="M 144.039062 87.71875 C 142.039062 88.441406 141 90.039062 141 92.480469 C 141 94.28125 141.160156 94.601562 142.480469 95.839844 C 143.679688 96.921875 144.320312 97.199219 145.601562 97.199219 C 147.71875 97.199219 149.441406 96.28125 150.398438 94.679688 C 151.359375 93.160156 151.398438 92.039062 150.640625 90.199219 C 149.640625 87.878906 146.71875 86.761719 144.039062 87.71875 Z M 144.039062 87.71875 "/>
<path style=" stroke:none;fill-rule:nonzero;fill:rgb(0%,0%,0%);fill-opacity:1;" d="M 122.398438 97.320312 C 122.398438 99.238281 120.839844 104.039062 119.640625 105.960938 C 116.839844 110.28125 112.160156 113.558594 106.960938 114.761719 C 105.800781 115.039062 103.28125 115.28125 101.359375 115.359375 L 97.800781 115.441406 L 97.679688 128.359375 C 97.601562 139.761719 97.640625 141.28125 98.199219 141.039062 C 98.519531 140.921875 98.800781 141 98.800781 141.199219 C 98.800781 141.519531 100.320312 141.480469 100.71875 141.160156 C 100.761719 141.121094 101.039062 141.078125 101.320312 141.039062 C 101.640625 141 101.878906 139.839844 102 137.199219 L 102.199219 133.398438 L 104.199219 133.28125 C 118.320312 132.601562 130.71875 124.640625 136.800781 112.441406 C 138.960938 108.160156 140.71875 102.640625 141.039062 99.28125 L 141.320312 96.398438 L 122.398438 96.398438 Z M 130.921875 103.800781 C 131.71875 104.558594 131.238281 106.320312 129.359375 110.121094 C 127.679688 113.398438 122.640625 118.960938 121.558594 118.679688 C 121.160156 118.558594 120.519531 118.71875 120.121094 119.039062 C 119.71875 119.320312 119.601562 119.601562 119.839844 119.601562 C 120.039062 119.601562 120.480469 119.359375 120.761719 119.078125 C 121.160156 118.679688 121.199219 118.71875 121 119.28125 C 120.839844 119.679688 120.519531 120 120.238281 120.039062 C 120 120.039062 119.398438 120.121094 118.878906 120.238281 C 118.238281 120.359375 118.039062 120.238281 118.238281 119.921875 C 118.441406 119.601562 118.320312 119.558594 117.839844 119.71875 C 117.441406 119.878906 116.921875 120 116.679688 120 C 116.398438 120 116.441406 120.160156 116.800781 120.398438 C 117.28125 120.71875 117.199219 120.800781 116.398438 120.839844 C 115.839844 120.878906 115.160156 120.878906 114.839844 120.839844 C 114.519531 120.761719 114.441406 120.921875 114.640625 121.238281 C 114.839844 121.601562 114.71875 121.640625 114.238281 121.480469 C 113.839844 121.320312 113.199219 121.398438 112.761719 121.601562 C 112.320312 121.839844 111.800781 121.921875 111.558594 121.761719 C 111.320312 121.640625 112 121.199219 113.121094 120.839844 C 116.359375 119.71875 119.480469 117.601562 122.601562 114.359375 C 125.28125 111.519531 126.878906 108.960938 128.761719 104.28125 C 129.238281 103.078125 130.039062 102.878906 130.921875 103.800781 Z M 111 122 C 111.121094 122.238281 110.960938 122.28125 110.640625 122.160156 C 109.921875 121.878906 109.800781 121.601562 110.359375 121.601562 C 110.601562 121.601562 110.878906 121.761719 111 122 Z M 111 122 "/>
<path style=" stroke:none;fill-rule:nonzero;fill:rgb(0%,0%,0%);fill-opacity:1;" d="M 97.121094 146.921875 C 95.960938 147.839844 94.800781 150.199219 94.800781 151.640625 C 94.800781 154.558594 98.039062 157.078125 100.921875 156.398438 C 105.28125 155.441406 106.480469 150.238281 103.039062 147.121094 C 101.441406 145.640625 98.761719 145.558594 97.121094 146.921875 Z M 97.121094 146.921875 "/>
</g>
</svg>
