<?xml version="1.0" standalone="no"?>
<!DOCTYPE svg PUBLIC "-//W3C//DTD SVG 20010904//EN"
 "http://www.w3.org/TR/2001/REC-SVG-20010904/DTD/svg10.dtd">
<svg version="1.0" xmlns="http://www.w3.org/2000/svg"
 width="500.000000pt" height="500.000000pt" viewBox="0 0 500.000000 500.000000"
 preserveAspectRatio="xMidYMid meet">

<g transform="translate(0.000000,500.000000) scale(0.100000,-0.100000)"
fill="#000000" stroke="none">
<path d="M2417 4036 c-14 -13 -31 -42 -37 -63 -26 -86 51 -173 139 -159 53 8
101 63 101 116 0 84 -45 130 -126 130 -40 0 -57 -5 -77 -24z"/>
<path d="M2558 3470 c-3 -111 -3 -210 -1 -220 4 -13 18 -19 62 -23 60 -5 172
-45 178 -63 3 -10 -171 -83 -287 -120 -30 -10 -58 -21 -63 -24 -9 -8 -29 -169
-21 -181 5 -9 55 7 172 57 46 20 85 34 87 32 3 -2 -22 -50 -55 -107 -33 -56
-60 -104 -60 -107 0 -2 23 -4 50 -4 28 0 50 -4 50 -9 0 -9 -25 -32 -244 -225
-95 -84 -126 -107 -126 -92 0 2 18 52 41 112 34 90 68 191 69 202 0 1 -42 2
-93 2 l-94 0 -15 -57 c-9 -32 -21 -78 -26 -103 -6 -25 -15 -57 -21 -72 l-11
-28 -160 0 -160 0 0 -620 0 -619 53 -53 c28 -29 123 -127 210 -217 l157 -163
0 690 0 691 73 60 c39 33 124 103 187 155 63 52 145 123 181 158 66 63 66 63
94 168 26 98 100 358 111 389 3 11 9 10 25 -5 36 -33 96 -132 114 -189 l18
-55 233 0 234 0 0 23 c0 37 -36 150 -78 245 -106 238 -331 443 -572 520 -68
22 -143 36 -246 47 l-61 7 -5 -202z m295 -44 c150 -62 296 -190 362 -318 39
-75 41 -102 10 -114 -22 -9 -41 11 -78 80 -62 118 -195 229 -340 284 -58 23
-73 32 -75 51 -7 46 35 52 121 17z m-775 -1168 c9 -9 12 -83 12 -273 0 -277
-4 -303 -43 -268 -10 10 -18 13 -17 8 6 -27 -3 -36 -10 -10 -12 47 -12 513 0
536 12 21 40 25 58 7z"/>
<path d="M1837 3654 c-4 -4 -7 -188 -7 -410 l0 -402 26 -6 c29 -8 247 -7 336
1 l58 6 -2 406 -3 406 -201 3 c-110 1 -203 -1 -207 -4z m247 -190 c12 -31 7
-429 -6 -442 -17 -17 -55 -15 -62 4 -8 21 -8 439 1 447 13 13 61 7 67 -9z"/>
<path d="M1343 2813 c-59 -12 -101 -97 -80 -161 24 -74 109 -101 194 -63 23
11 45 16 49 13 4 -4 4 -2 1 4 -3 6 -1 26 5 46 9 29 7 42 -10 81 -11 25 -31 53
-45 62 -27 17 -79 26 -114 18z"/>
<path d="M3601 2807 c-50 -18 -76 -58 -76 -119 0 -45 4 -53 37 -84 30 -27 46
-34 78 -34 53 0 96 23 120 63 24 38 25 66 6 112 -25 58 -98 86 -165 62z"/>
<path d="M3060 2567 c0 -48 -39 -168 -69 -216 -70 -108 -187 -190 -317 -220
-29 -7 -92 -13 -140 -15 l-89 -2 -3 -323 c-2 -285 -1 -323 13 -317 8 3 15 1
15 -4 0 -8 38 -7 48 1 1 1 8 2 15 3 8 1 14 30 17 96 l5 95 50 3 c353 17 663
216 815 521 54 107 98 245 106 329 l7 72 -237 0 -236 0 0 -23z m213 -162 c20
-19 8 -63 -39 -158 -42 -82 -168 -221 -195 -214 -10 3 -26 -1 -36 -9 -10 -7
-13 -14 -7 -14 5 0 16 6 23 13 10 10 11 9 6 -5 -4 -10 -12 -18 -19 -19 -6 0
-21 -2 -34 -5 -16 -3 -21 0 -16 8 5 8 2 9 -10 5 -10 -4 -23 -7 -29 -7 -7 0 -6
-4 3 -10 12 -8 10 -10 -10 -11 -14 -1 -31 -1 -39 0 -8 2 -10 -2 -5 -10 5 -9 2
-10 -10 -6 -10 4 -26 2 -37 -3 -11 -6 -24 -8 -30 -4 -6 3 11 14 39 23 81 28
159 81 237 162 67 71 107 135 154 252 12 30 32 35 54 12z m-498 -455 c3 -6 -1
-7 -9 -4 -18 7 -21 14 -7 14 6 0 13 -4 16 -10z"/>
<path d="M2428 1327 c-29 -23 -58 -82 -58 -118 0 -73 81 -136 153 -119 109 24
139 154 53 232 -40 37 -107 39 -148 5z"/>
</g>
</svg>
