<?xml version="1.0" standalone="no"?>
<!DOCTYPE svg PUBLIC "-//W3C//DTD SVG 20010904//EN"
 "http://www.w3.org/TR/2001/REC-SVG-20010904/DTD/svg10.dtd">
<svg version="1.0" xmlns="http://www.w3.org/2000/svg"
 width="500.000000pt" height="445.000000pt" viewBox="0 0 500.000000 445.000000"
 preserveAspectRatio="xMidYMid meet">

<g transform="translate(0.000000,445.000000) scale(0.100000,-0.100000)"
fill="#000000" stroke="none">
<path d="M2414 4026 c-30 -30 -34 -40 -34 -85 0 -42 5 -56 31 -85 99 -113 268
23 189 152 -23 37 -54 52 -112 52 -32 0 -47 -7 -74 -34z"/>
<path d="M2558 3469 c-3 -111 -3 -209 -1 -219 4 -13 19 -19 66 -23 111 -9 217
-65 160 -83 -10 -4 -52 -20 -93 -36 -41 -17 -113 -43 -160 -58 -85 -27 -85
-27 -92 -66 -11 -61 -9 -144 2 -144 6 0 62 20 123 45 62 25 116 45 120 45 10
0 -4 -30 -55 -114 -26 -44 -48 -85 -48 -93 0 -9 14 -13 45 -13 30 0 45 -4 45
-13 0 -7 -46 -52 -102 -99 -57 -48 -128 -110 -158 -138 -76 -71 -110 -95 -110
-78 0 7 20 65 44 130 25 64 49 132 54 152 l10 36 -92 0 -92 0 -17 -53 c-9 -30
-17 -64 -17 -77 0 -13 -8 -47 -17 -77 l-17 -53 -163 0 -163 0 0 -617 1 -618
207 -217 207 -216 3 688 2 688 133 112 c72 61 184 156 248 211 l116 99 32 113
c92 321 113 393 120 400 4 4 25 -11 46 -34 32 -36 62 -91 103 -191 l12 -28
230 0 c261 0 241 -9 214 93 -24 94 -82 225 -133 302 -63 97 -210 241 -302 298
-123 76 -270 122 -450 141 l-56 6 -5 -201z m295 -43 c150 -62 296 -190 362
-318 39 -75 41 -102 10 -114 -22 -9 -41 11 -78 80 -62 118 -195 229 -340 284
-58 23 -73 32 -75 51 -7 46 35 52 121 17z m-775 -1168 c9 -9 12 -83 12 -273 0
-277 -4 -303 -43 -268 -10 10 -18 13 -17 8 6 -27 -3 -36 -10 -10 -12 47 -12
513 0 536 12 21 40 25 58 7z"/>
<path d="M1837 3654 c-4 -4 -7 -189 -7 -411 l0 -403 208 2 207 3 0 405 0 405
-201 3 c-110 1 -203 -1 -207 -4z m247 -190 c12 -31 7 -429 -6 -442 -17 -17
-55 -15 -62 4 -8 21 -8 439 1 447 13 13 61 7 67 -9z"/>
<path d="M1343 2809 c-46 -13 -83 -62 -83 -109 0 -52 14 -81 54 -108 40 -27
80 -28 137 -3 24 11 47 17 53 14 5 -3 6 -2 3 4 -3 5 -1 25 5 45 9 29 7 42 -10
81 -30 67 -88 95 -159 76z"/>
<path d="M3562 2780 c-37 -36 -48 -87 -29 -132 20 -48 50 -70 102 -75 90 -11
162 71 135 152 -18 55 -62 85 -125 85 -46 0 -58 -4 -83 -30z"/>
<path d="M3066 2578 c-2 -7 -9 -40 -15 -72 -16 -89 -51 -155 -122 -230 -100
-108 -216 -155 -392 -160 l-92 -3 -3 -323 c-2 -284 -1 -322 13 -316 8 3 15 1
15 -4 0 -8 38 -7 48 1 1 1 8 2 15 3 8 1 14 30 17 96 l5 95 85 8 c160 14 328
70 456 152 119 76 257 230 323 362 73 144 132 374 100 394 -23 14 -449 12
-453 -3z m207 -173 c20 -19 8 -63 -39 -158 -42 -82 -168 -221 -195 -214 -10 3
-26 -1 -36 -9 -10 -7 -13 -14 -7 -14 5 0 16 6 23 13 10 10 11 9 6 -5 -4 -10
-12 -18 -19 -19 -6 0 -21 -2 -34 -5 -16 -3 -21 0 -16 8 5 8 2 9 -10 5 -10 -4
-23 -7 -29 -7 -7 0 -6 -4 3 -10 12 -8 10 -10 -10 -11 -14 -1 -31 -1 -39 0 -8
2 -10 -2 -5 -10 5 -9 2 -10 -10 -6 -10 4 -26 2 -37 -3 -11 -6 -24 -8 -30 -4
-6 3 11 14 39 23 81 28 159 81 237 162 67 71 107 135 154 252 12 30 32 35 54
12z m-498 -455 c3 -6 -1 -7 -9 -4 -18 7 -21 14 -7 14 6 0 13 -4 16 -10z"/>
<path d="M2423 1321 c-65 -59 -65 -152 -2 -206 59 -49 158 -25 193 49 23 48
13 94 -31 145 -31 37 -39 41 -82 41 -37 0 -53 -6 -78 -29z"/>
</g>
</svg>
